{
    "asset" : {
        "generator" : "Khronos glTF Blender I/O v3.2.40",
        "version" : "2.0"
    },
    "scene" : 0,
    "scenes" : [
        {
            "name" : "Scene",
            "nodes" : [
                0,
                1,
                2,
                3,
                4,
                5
            ]
        }
    ],
    "nodes" : [
        {
            "mesh" : 0,
            "name" : "BottomBread",
            "scale" : [
                10.142997741699219,
                10.142997741699219,
                10.142997741699219
            ],
            "translation" : [
                0.006432183552533388,
                -0.26633593440055847,
                -0.005722917150706053
            ]
        },
        {
            "mesh" : 1,
            "name" : "cheese",
            "scale" : [
                10.142997741699219,
                10.142997741699219,
                10.142997741699219
            ],
            "translation" : [
                -0.010807111859321594,
                0.015145769342780113,
                -0.0038124145939946175
            ]
        },
        {
            "mesh" : 2,
            "name" : "Lectus",
            "rotation" : [
                0,
                0,
                -0.005298858042806387,
                0.999985933303833
            ],
            "scale" : [
                10.142997741699219,
                10.142997741699219,
                10.142997741699219
            ],
            "translation" : [
                0.00426112487912178,
                -0.20153847336769104,
                -0.0028516585007309914
            ]
        },
        {
            "mesh" : 3,
            "name" : "Patty",
            "scale" : [
                10.142997741699219,
                10.142997741699219,
                10.142997741699219
            ],
            "translation" : [
                0.006432183552533388,
                -0.07094483077526093,
                -0.005722917150706053
            ]
        },
        {
            "mesh" : 4,
            "name" : "tomato",
            "scale" : [
                10.142997741699219,
                10.142997741699219,
                10.142997741699219
            ],
            "translation" : [
                0.006432183552533388,
                0.061377473175525665,
                -0.005722917150706053
            ]
        },
        {
            "mesh" : 5,
            "name" : "UpperPurger",
            "scale" : [
                10.142997741699219,
                10.142997741699219,
                10.142997741699219
            ],
            "translation" : [
                0.006432183552533388,
                0.32103976607322693,
                -0.005722917150706053
            ]
        }
    ],
    "materials" : [
        {
            "doubleSided" : true,
            "name" : "Material.002",
            "normalTexture" : {
                "index" : 0
            },
            "pbrMetallicRoughness" : {
                "baseColorTexture" : {
                    "index" : 1
                },
                "metallicFactor" : 0,
                "roughnessFactor" : 0.34090909361839294
            }
        },
        {
            "doubleSided" : true,
            "name" : "Material.005",
            "pbrMetallicRoughness" : {
                "baseColorFactor" : [
                    2.0000016689300537,
                    1.6758897304534912,
                    0.3274083733558655,
                    1
                ],
                "metallicFactor" : 0,
                "roughnessFactor" : 0.4000000059604645
            }
        },
        {
            "doubleSided" : true,
            "name" : "Material.007",
            "normalTexture" : {
                "index" : 2
            },
            "pbrMetallicRoughness" : {
                "baseColorTexture" : {
                    "index" : 3
                },
                "metallicFactor" : 0,
                "roughnessFactor" : 0.17272727191448212
            }
        },
        {
            "doubleSided" : true,
            "name" : "Material.004",
            "normalTexture" : {
                "index" : 4
            },
            "pbrMetallicRoughness" : {
                "baseColorFactor" : [
                    0.25015830993652344,
                    0.11443537473678589,
                    0.09530749171972275,
                    1
                ],
                "metallicFactor" : 0,
                "roughnessFactor" : 0.5499999523162842
            }
        },
        {
            "doubleSided" : true,
            "name" : "Material.003",
            "pbrMetallicRoughness" : {
                "baseColorFactor" : [
                    0.8962695598602295,
                    0.1094617024064064,
                    0.09989873319864273,
                    1
                ],
                "metallicFactor" : 0,
                "roughnessFactor" : 0.44545453786849976
            }
        }
    ],
    "meshes" : [
        {
            "name" : "Sphere.005",
            "primitives" : [
                {
                    "attributes" : {
                        "POSITION" : 0,
                        "NORMAL" : 1,
                        "TEXCOORD_0" : 2,
                        "TEXCOORD_1" : 3
                    },
                    "indices" : 4,
                    "material" : 0
                }
            ]
        },
        {
            "name" : "Plane.004",
            "primitives" : [
                {
                    "attributes" : {
                        "POSITION" : 5,
                        "NORMAL" : 6,
                        "TEXCOORD_0" : 7,
                        "TEXCOORD_1" : 8
                    },
                    "indices" : 9,
                    "material" : 1
                }
            ]
        },
        {
            "name" : "Circle",
            "primitives" : [
                {
                    "attributes" : {
                        "POSITION" : 10,
                        "NORMAL" : 11,
                        "TEXCOORD_0" : 12,
                        "TEXCOORD_1" : 13
                    },
                    "indices" : 14,
                    "material" : 2
                }
            ]
        },
        {
            "name" : "Sphere.002",
            "primitives" : [
                {
                    "attributes" : {
                        "POSITION" : 15,
                        "NORMAL" : 16,
                        "TEXCOORD_0" : 17,
                        "TEXCOORD_1" : 18
                    },
                    "indices" : 19,
                    "material" : 3
                }
            ]
        },
        {
            "name" : "Sphere.001",
            "primitives" : [
                {
                    "attributes" : {
                        "POSITION" : 20,
                        "NORMAL" : 21,
                        "TEXCOORD_0" : 22,
                        "TEXCOORD_1" : 23
                    },
                    "indices" : 24,
                    "material" : 4
                }
            ]
        },
        {
            "name" : "Sphere",
            "primitives" : [
                {
                    "attributes" : {
                        "POSITION" : 25,
                        "NORMAL" : 26,
                        "TEXCOORD_0" : 27,
                        "TEXCOORD_1" : 28
                    },
                    "indices" : 29,
                    "material" : 0
                }
            ]
        }
    ],
    "textures" : [
        {
            "sampler" : 0,
            "source" : 0
        },
        {
            "sampler" : 0,
            "source" : 0
        },
        {
            "sampler" : 0,
            "source" : 1
        },
        {
            "sampler" : 0,
            "source" : 1
        },
        {
            "sampler" : 0,
            "source" : 2
        }
    ],
    "images" : [
        {
            "bufferView" : 5,
            "mimeType" : "image/jpeg",
            "name" : "360_F_414037673_Hi0hcSrdkpiNDBEtQygTNNaxlW5aLdQT"
        },
        {
            "bufferView" : 16,
            "mimeType" : "image/jpeg",
            "name" : "TexturesCom_Vegetables0001_1_seamless_S"
        },
        {
            "bufferView" : 22,
            "mimeType" : "image/jpeg",
            "name" : "13060-normal"
        }
    ],
    "accessors" : [
        {
            "bufferView" : 0,
            "componentType" : 5126,
            "count" : 1374,
            "max" : [
                0.06636085361242294,
                0.007678371388465166,
                0.06636085361242294
            ],
            "min" : [
                -0.06636084616184235,
                -0.006924847606569529,
                -0.06636086106300354
            ],
            "type" : "VEC3"
        },
        {
            "bufferView" : 1,
            "componentType" : 5126,
            "count" : 1374,
            "type" : "VEC3"
        },
        {
            "bufferView" : 2,
            "componentType" : 5126,
            "count" : 1374,
            "type" : "VEC2"
        },
        {
            "bufferView" : 3,
            "componentType" : 5126,
            "count" : 1374,
            "type" : "VEC2"
        },
        {
            "bufferView" : 4,
            "componentType" : 5123,
            "count" : 6528,
            "type" : "SCALAR"
        },
        {
            "bufferView" : 6,
            "componentType" : 5126,
            "count" : 1759,
            "max" : [
                0.06340634822845459,
                0.003342382377013564,
                0.06213677302002907
            ],
            "min" : [
                -0.06368963420391083,
                -0.010334227234125137,
                -0.06205984950065613
            ],
            "type" : "VEC3"
        },
        {
            "bufferView" : 7,
            "componentType" : 5126,
            "count" : 1759,
            "type" : "VEC3"
        },
        {
            "bufferView" : 8,
            "componentType" : 5126,
            "count" : 1759,
            "type" : "VEC2"
        },
        {
            "bufferView" : 9,
            "componentType" : 5126,
            "count" : 1759,
            "type" : "VEC2"
        },
        {
            "bufferView" : 10,
            "componentType" : 5123,
            "count" : 8976,
            "type" : "SCALAR"
        },
        {
            "bufferView" : 11,
            "componentType" : 5126,
            "count" : 5473,
            "max" : [
                0.07332092523574829,
                0.004754471126943827,
                0.07243484258651733
            ],
            "min" : [
                -0.07268354296684265,
                -0.006321700289845467,
                -0.07254035025835037
            ],
            "type" : "VEC3"
        },
        {
            "bufferView" : 12,
            "componentType" : 5126,
            "count" : 5473,
            "type" : "VEC3"
        },
        {
            "bufferView" : 13,
            "componentType" : 5126,
            "count" : 5473,
            "type" : "VEC2"
        },
        {
            "bufferView" : 14,
            "componentType" : 5126,
            "count" : 5473,
            "type" : "VEC2"
        },
        {
            "bufferView" : 15,
            "componentType" : 5123,
            "count" : 29184,
            "type" : "SCALAR"
        },
        {
            "bufferView" : 17,
            "componentType" : 5126,
            "count" : 747,
            "max" : [
                0.06098638474941254,
                0.009588566608726978,
                0.06098638474941254
            ],
            "min" : [
                -0.06098638474941254,
                -0.008826465345919132,
                -0.06098639965057373
            ],
            "type" : "VEC3"
        },
        {
            "bufferView" : 18,
            "componentType" : 5126,
            "count" : 747,
            "type" : "VEC3"
        },
        {
            "bufferView" : 19,
            "componentType" : 5126,
            "count" : 747,
            "type" : "VEC2"
        },
        {
            "bufferView" : 20,
            "componentType" : 5126,
            "count" : 747,
            "type" : "VEC2"
        },
        {
            "bufferView" : 21,
            "componentType" : 5123,
            "count" : 2688,
            "type" : "SCALAR"
        },
        {
            "bufferView" : 23,
            "componentType" : 5126,
            "count" : 590,
            "max" : [
                0.06321743875741959,
                0.0032048355787992477,
                0.06321743130683899
            ],
            "min" : [
                -0.06321743130683899,
                -0.0030001047998666763,
                -0.06321745365858078
            ],
            "type" : "VEC3"
        },
        {
            "bufferView" : 24,
            "componentType" : 5126,
            "count" : 590,
            "type" : "VEC3"
        },
        {
            "bufferView" : 25,
            "componentType" : 5126,
            "count" : 590,
            "type" : "VEC2"
        },
        {
            "bufferView" : 26,
            "componentType" : 5126,
            "count" : 590,
            "type" : "VEC2"
        },
        {
            "bufferView" : 27,
            "componentType" : 5123,
            "count" : 2688,
            "type" : "SCALAR"
        },
        {
            "bufferView" : 28,
            "componentType" : 5126,
            "count" : 1419,
            "max" : [
                0.06615179777145386,
                0.021196939051151276,
                0.06615177541971207
            ],
            "min" : [
                -0.06615178287029266,
                -0.02237459272146225,
                -0.06615180522203445
            ],
            "type" : "VEC3"
        },
        {
            "bufferView" : 29,
            "componentType" : 5126,
            "count" : 1419,
            "type" : "VEC3"
        },
        {
            "bufferView" : 30,
            "componentType" : 5126,
            "count" : 1419,
            "type" : "VEC2"
        },
        {
            "bufferView" : 31,
            "componentType" : 5126,
            "count" : 1419,
            "type" : "VEC2"
        },
        {
            "bufferView" : 32,
            "componentType" : 5123,
            "count" : 7296,
            "type" : "SCALAR"
        }
    ],
    "bufferViews" : [
        {
            "buffer" : 0,
            "byteLength" : 16488,
            "byteOffset" : 0
        },
        {
            "buffer" : 0,
            "byteLength" : 16488,
            "byteOffset" : 16488
        },
        {
            "buffer" : 0,
            "byteLength" : 10992,
            "byteOffset" : 32976
        },
        {
            "buffer" : 0,
            "byteLength" : 10992,
            "byteOffset" : 43968
        },
        {
            "buffer" : 0,
            "byteLength" : 13056,
            "byteOffset" : 54960
        },
        {
            "buffer" : 0,
            "byteLength" : 74609,
            "byteOffset" : 68016
        },
        {
            "buffer" : 0,
            "byteLength" : 21108,
            "byteOffset" : 142628
        },
        {
            "buffer" : 0,
            "byteLength" : 21108,
            "byteOffset" : 163736
        },
        {
            "buffer" : 0,
            "byteLength" : 14072,
            "byteOffset" : 184844
        },
        {
            "buffer" : 0,
            "byteLength" : 14072,
            "byteOffset" : 198916
        },
        {
            "buffer" : 0,
            "byteLength" : 17952,
            "byteOffset" : 212988
        },
        {
            "buffer" : 0,
            "byteLength" : 65676,
            "byteOffset" : 230940
        },
        {
            "buffer" : 0,
            "byteLength" : 65676,
            "byteOffset" : 296616
        },
        {
            "buffer" : 0,
            "byteLength" : 43784,
            "byteOffset" : 362292
        },
        {
            "buffer" : 0,
            "byteLength" : 43784,
            "byteOffset" : 406076
        },
        {
            "buffer" : 0,
            "byteLength" : 58368,
            "byteOffset" : 449860
        },
        {
            "buffer" : 0,
            "byteLength" : 1050547,
            "byteOffset" : 508228
        },
        {
            "buffer" : 0,
            "byteLength" : 8964,
            "byteOffset" : 1558776
        },
        {
            "buffer" : 0,
            "byteLength" : 8964,
            "byteOffset" : 1567740
        },
        {
            "buffer" : 0,
            "byteLength" : 5976,
            "byteOffset" : 1576704
        },
        {
            "buffer" : 0,
            "byteLength" : 5976,
            "byteOffset" : 1582680
        },
        {
            "buffer" : 0,
            "byteLength" : 5376,
            "byteOffset" : 1588656
        },
        {
            "buffer" : 0,
            "byteLength" : 491520,
            "byteOffset" : 1594032
        },
        {
            "buffer" : 0,
            "byteLength" : 7080,
            "byteOffset" : 2085552
        },
        {
            "buffer" : 0,
            "byteLength" : 7080,
            "byteOffset" : 2092632
        },
        {
            "buffer" : 0,
            "byteLength" : 4720,
            "byteOffset" : 2099712
        },
        {
            "buffer" : 0,
            "byteLength" : 4720,
            "byteOffset" : 2104432
        },
        {
            "buffer" : 0,
            "byteLength" : 5376,
            "byteOffset" : 2109152
        },
        {
            "buffer" : 0,
            "byteLength" : 17028,
            "byteOffset" : 2114528
        },
        {
            "buffer" : 0,
            "byteLength" : 17028,
            "byteOffset" : 2131556
        },
        {
            "buffer" : 0,
            "byteLength" : 11352,
            "byteOffset" : 2148584
        },
        {
            "buffer" : 0,
            "byteLength" : 11352,
            "byteOffset" : 2159936
        },
        {
            "buffer" : 0,
            "byteLength" : 14592,
            "byteOffset" : 2171288
        }
    ],
    "samplers" : [
        {
            "magFilter" : 9729,
            "minFilter" : 9987
        }
    ],
    "buffers" : [
        {
            "byteLength" : 2185880,
            "uri" : "data:application/octet-stream;base64,"
        }
    ]
}
