{
    "asset" : {
        "generator" : "Khronos glTF Blender I/O v3.2.40",
        "version" : "2.0"
    },
    "scene" : 0,
    "scenes" : [
        {
            "name" : "Scene",
            "nodes" : [
                0,
                1,
                2,
                3,
                4,
                5
            ]
        }
    ],
    "nodes" : [
        {
            "name" : "transform4"
        },
        {
            "name" : "transform1"
        },
        {
            "name" : "transform2"
        },
        {
            "name" : "transform3"
        },
        {
            "name" : "transform5"
        },
        {
            "mesh" : 0,
            "name" : "finalfish",
            "rotation" : [
                0.7071068286895752,
                0,
                0,
                0.7071067094802856
            ]
        }
    ],
    "materials" : [
        {
            "doubleSided" : true,
            "name" : "fish:initialShadingGroup",
            "pbrMetallicRoughness" : {
                "baseColorFactor" : [
                    0.800000011920929,
                    0.800000011920929,
                    0.800000011920929,
                    1
                ],
                "metallicFactor" : 0,
                "roughnessFactor" : 0.5
            }
        },
        {
            "doubleSided" : true,
            "name" : "initialShadingGroup",
            "pbrMetallicRoughness" : {
                "baseColorFactor" : [
                    0.800000011920929,
                    0.800000011920929,
                    0.800000011920929,
                    1
                ],
                "metallicFactor" : 0,
                "roughnessFactor" : 0.5
            }
        },
        {
            "doubleSided" : true,
            "name" : "cauda:initialShadingGroup",
            "pbrMetallicRoughness" : {
                "baseColorFactor" : [
                    0.800000011920929,
                    0.800000011920929,
                    0.800000011920929,
                    1
                ],
                "metallicFactor" : 0,
                "roughnessFactor" : 0.5
            }
        }
    ],
    "meshes" : [
        {
            "name" : "finalfish",
            "primitives" : [
                {
                    "attributes" : {
                        "POSITION" : 0,
                        "NORMAL" : 1,
                        "TEXCOORD_0" : 2
                    },
                    "indices" : 3,
                    "material" : 0
                },
                {
                    "attributes" : {
                        "POSITION" : 4,
                        "NORMAL" : 5,
                        "TEXCOORD_0" : 6
                    },
                    "indices" : 7,
                    "material" : 1
                },
                {
                    "attributes" : {
                        "POSITION" : 8,
                        "NORMAL" : 9,
                        "TEXCOORD_0" : 10
                    },
                    "indices" : 11,
                    "material" : 2
                }
            ]
        }
    ],
    "accessors" : [
        {
            "bufferView" : 0,
            "componentType" : 5126,
            "count" : 1042,
            "max" : [
                0.942467987537384,
                2.845747947692871,
                1.0378550291061401
            ],
            "min" : [
                -0.942467987537384,
                -4.737915992736816,
                -1.3888909816741943
            ],
            "type" : "VEC3"
        },
        {
            "bufferView" : 1,
            "componentType" : 5126,
            "count" : 1042,
            "type" : "VEC3"
        },
        {
            "bufferView" : 2,
            "componentType" : 5126,
            "count" : 1042,
            "type" : "VEC2"
        },
        {
            "bufferView" : 3,
            "componentType" : 5123,
            "count" : 1584,
            "type" : "SCALAR"
        },
        {
            "bufferView" : 4,
            "componentType" : 5126,
            "count" : 104,
            "max" : [
                1.1569420099258423,
                1.2914769649505615,
                1.4939219951629639
            ],
            "min" : [
                -1.1622819900512695,
                -3.6227850914001465,
                -1.9650930166244507
            ],
            "type" : "VEC3"
        },
        {
            "bufferView" : 5,
            "componentType" : 5126,
            "count" : 104,
            "type" : "VEC3"
        },
        {
            "bufferView" : 6,
            "componentType" : 5126,
            "count" : 104,
            "type" : "VEC2"
        },
        {
            "bufferView" : 7,
            "componentType" : 5123,
            "count" : 240,
            "type" : "SCALAR"
        },
        {
            "bufferView" : 8,
            "componentType" : 5126,
            "count" : 214,
            "max" : [
                0.05991100147366524,
                -3.87663197517395,
                1.1964279413223267
            ],
            "min" : [
                -0.05991100147366524,
                -6.749361991882324,
                -1.3148219585418701
            ],
            "type" : "VEC3"
        },
        {
            "bufferView" : 9,
            "componentType" : 5126,
            "count" : 214,
            "type" : "VEC3"
        },
        {
            "bufferView" : 10,
            "componentType" : 5126,
            "count" : 214,
            "type" : "VEC2"
        },
        {
            "bufferView" : 11,
            "componentType" : 5123,
            "count" : 306,
            "type" : "SCALAR"
        }
    ],
    "bufferViews" : [
        {
            "buffer" : 0,
            "byteLength" : 12504,
            "byteOffset" : 0
        },
        {
            "buffer" : 0,
            "byteLength" : 12504,
            "byteOffset" : 12504
        },
        {
            "buffer" : 0,
            "byteLength" : 8336,
            "byteOffset" : 25008
        },
        {
            "buffer" : 0,
            "byteLength" : 3168,
            "byteOffset" : 33344
        },
        {
            "buffer" : 0,
            "byteLength" : 1248,
            "byteOffset" : 36512
        },
        {
            "buffer" : 0,
            "byteLength" : 1248,
            "byteOffset" : 37760
        },
        {
            "buffer" : 0,
            "byteLength" : 832,
            "byteOffset" : 39008
        },
        {
            "buffer" : 0,
            "byteLength" : 480,
            "byteOffset" : 39840
        },
        {
            "buffer" : 0,
            "byteLength" : 2568,
            "byteOffset" : 40320
        },
        {
            "buffer" : 0,
            "byteLength" : 2568,
            "byteOffset" : 42888
        },
        {
            "buffer" : 0,
            "byteLength" : 1712,
            "byteOffset" : 45456
        },
        {
            "buffer" : 0,
            "byteLength" : 612,
            "byteOffset" : 47168
        }
    ],
    "buffers" : [
        {
            "byteLength" : 47780,
            "uri" : "data:application/octet-stream;base64,"
        }
    ]
}
